<?xml version="1.0" encoding="utf-8"?>
<!-- Generator: Adobe Illustrator 28.1.0, SVG Export Plug-In . SVG Version: 6.00 Build 0)  -->
<svg version="1.1" id="Layer_1" xmlns="http://www.w3.org/2000/svg" xmlns:xlink="http://www.w3.org/1999/xlink" x="0px" y="0px"
	 viewBox="0 0 612 792" style="enable-background:new 0 0 612 792;" xml:space="preserve">
<style type="text/css">
	.st0{fill:#FACE1A;}
	.st1{fill:#F2A51F;}
	.st2{fill:#F0A320;}
	.st3{fill:#F26A27;}
	.st4{fill:#F1592C;}
	.st5{fill:#53843F;}
	.st6{fill:#8EC641;}
</style>
<path class="st0" d="M328.8,307.2c-18.3-7.3-46.2-8.2-46.2-8.2c-14.4-0.6-32.1,2.8-32.1,2.8c-29.4,7-47.4,19.3-47.4,19.3
	c-37.3,26.9-37.9,37-37.9,37s26.3,1.8,32.1,1.2s27.8-0.3,49.7-5.8c8.6-2.1,16.2-4.5,23.5-7.4c7.9-3.1,13.8-5,18.5-7.4
	c11.9-6,16.3-10.1,16.9-10.5c4.9-3.1,7.5-5,9.4-6.6c3.4-3,6-5,8-7.5C325.1,311.8,327,309.5,328.8,307.2z"/>
<path class="st1" d="M364.5,330.1c-6.1,11.9-13,23.7-19.6,33.4c-3.9,5.8-7.2,8.2-10.5,12c-2.7,3.2-3.9,4.2-4.7,5
	c-9.8,9.2-23.4,19-34.1,24.6c-12.8,6.7-25.5,11-25.5,11c-4.8,1-15.5,3.8-26.5,5.5c-16,2.5-32.6,3.9-32.6,3.9
	c-43.7,0.9-72.8-4.9-72.8-4.9c-0.3-3.9,3.1-16.5,7.6-28.3c4.6-12,10.4-23.1,10.4-23.1s37,11.6,84.1,10.4s84.4-23.5,84.4-23.5
	s18.3-10.4,22.3-13.8S364.5,330.1,364.5,330.1z"/>
<path class="st2" d="M140.5,429.8c0,0,48.9,18,106.6,16.5s96.5-28.7,96.5-28.7s38.5-26.1,56.9-51.8c0,0,13.1,22.1,17.7,40.3
	c0,0-26.9,27.7-72.8,50.3c0,0-27.5,13.8-66,18.6c0,0-20.2,1.1-51.1-3.5c0,0-14.3-3.1-19.5-4.8c-5.6-1.8-13.4-5.2-21.5-8.4
	C187.2,458.5,150,439.3,140.5,429.8z"/>
<path class="st3" d="M420.8,415.7c0,0,5,33.8-3.8,63.8c0,0-42.4,31.6-88.3,46.1c0,0-24.5,10.8-56,12.4c0,0-31.2,4.4-68.8-9.2
	c0,0-28-11-49.5-32.8c0,0,29.6,12.8,65.6,14.9s55.3-5.3,71.3-10.1s41.3-17.4,41.3-17.4l28.6-18.1l34.5-25.9L420.8,415.7z"/>
<path class="st4" d="M413.8,490.4c0,0-15.1,35.7-31.4,49.5c0,0-14.9,17-39.9,30c0,0-15.5,7-29.4,10.3c-3.4,0.8-6.6,1.4-9.6,1.6
	c0,0-11.6,1.9-22.2,1.9c-3.2,0-6.3-0.2-8.9-0.6c0,0-15.1-0.7-27.3-3.9c0,0-20.9-6-30.3-10.5c0,0,27.6,0.6,31.9,0.2
	c7-0.5,21.7-1.5,50-8c4-0.9,7.9-2.1,11.7-3.5c6.8-2.5,13.3-5.5,19.7-8.4C359,534.5,385.7,513.3,413.8,490.4z"/>
<path class="st5" d="M195.8,186.8c0,0,7.8,11.8,8.2,16c0,0,5.2,15.8,11.2,38.2s23.9,35.9,23.9,35.9s4,5.7,28.1,9.3
	c0,0-1.1-8.7-13.4-35.8c0,0-11.6-20.2-27.7-33.2l0.1-1.2c0,0,1.2-3.4,27.8,22.5c0,0,20.3,22.5,28.7,46.2c0,0,5-21.4,1.1-38.7
	c0,0-7.8-21.9-29.5-36.7C232.7,194.4,195.8,186.8,195.8,186.8z"/>
<path class="st6" d="M293.2,270.7h-1.7c0,0,2.3-4.7-1.7-27.7c0,0,9.6-10.9,23.2-19.1c0,0,15.9-9.3,40.5-13.6c0,0-6.4,10.9-10.7,25.2
	c0,0-5.2,18.8-6.7,22c0,0-5.4,16-16.8,25.4c0,0-13.1,9.6-23.7,8.4c0,0-0.9-0.6,2.8-11.5c0,0,7.3-17.3,13.5-27.2c0,0,10.1-12.1,17-18
	l-0.9-1.1c0,0-11.8,7.8-16.5,13.1c-4.7,5.4-6.3,6-13.6,16.2C297.8,262.9,294.3,267.6,293.2,270.7z"/>
</svg>
